<!DOCTYPE svg PUBLIC "-//W3C//DTD SVG 1.1//EN" "http://www.w3.org/Graphics/SVG/1.1/DTD/svg11.dtd">
<!-- Uploaded to: SVG Repo, www.svgrepo.com, Transformed by: SVG Repo Mixer Tools -->
<svg version="1.1" id="Layer_1" xmlns="http://www.w3.org/2000/svg" xmlns:xlink="http://www.w3.org/1999/xlink" viewBox="0 0 512.00 512.00" xml:space="preserve" width="208px" height="208px" fill="#222020" stroke="#222020" stroke-width="14.847999999999999" transform="matrix(1, 0, 0, 1, 0, 0)">
<g id="SVGRepo_bgCarrier" stroke-width="0"/>
<g id="SVGRepo_tracerCarrier" stroke-linecap="round" stroke-linejoin="round" stroke="#CCCCCC" stroke-width="7.168000000000001"/>
<g id="SVGRepo_iconCarrier"> <path style="fill:#ffffff;" d="M256,434.28c-98.464,0-178.28-79.816-178.28-178.28S157.536,77.72,256,77.72 S434.28,157.536,434.28,256C434.168,354.416,354.416,434.168,256,434.28z"/> <path style="fill:#ffffff;" d="M256,85.72c94.04,0,170.28,76.24,170.28,170.28S350.04,426.28,256,426.28S85.72,350.04,85.72,256 C85.824,162,162,85.824,256,85.72 M256,69.72c-102.88,0-186.28,83.4-186.28,186.28S153.12,442.28,256,442.28 S442.28,358.88,442.28,256l0,0C442.28,153.12,358.88,69.72,256,69.72z"/> <g> <rect x="252" style="fill:#ffffff;" width="8" height="40"/> <rect x="252" y="472" style="fill:#ffffff;" width="8" height="40"/> <rect y="252" style="fill:#ffffff;" width="40" height="8"/> <rect x="472" y="252" style="fill:#ffffff;" width="40" height="8"/> </g> <polygon style="fill:#ffffff;" points="256,362.84 142.424,322.104 142.424,193.368 256,234.104 "/> <polygon style="fill:#ffffff;" points="256,362.84 369.576,322.104 369.576,193.368 256,234.104 "/> <polygon style="fill:#ffffff;" points="142.424,193.368 248.96,149.16 369.576,193.368 256,234.104 "/> </g>
</svg>