<?xml version="1.0" encoding="utf-8"?><!-- Uploaded to: SVG Repo, www.svgrepo.com, Generator: SVG Repo Mixer Tools -->
<svg width="800px" height="800px" viewBox="0 0 24 24" fill="none" xmlns="http://www.w3.org/2000/svg">
<path d="M8.93796 4.60665C9.87984 4.21607 10.9134 4 12 4C13.0866 4 14.1202 4.21607 15.062 4.60665C15.5722 4.81821 16.1573 4.57614 16.3688 4.06598C16.5804 3.55582 16.3383 2.97075 15.8281 2.7592C14.6477 2.26968 13.3541 2 12 2C10.6459 2 9.35232 2.26968 8.17186 2.7592C7.6617 2.97075 7.41963 3.55582 7.63118 4.06598C7.84274 4.57614 8.4278 4.81821 8.93796 4.60665Z" fill="#000000"/>
<path d="M4.60665 8.93796C4.81821 8.4278 4.57614 7.84274 4.06598 7.63118C3.55582 7.41963 2.97075 7.6617 2.7592 8.17186C2.26968 9.35232 2 10.6459 2 12C2 13.3541 2.26968 14.6477 2.7592 15.8281C2.97075 16.3383 3.55582 16.5804 4.06598 16.3688C4.57614 16.1573 4.81821 15.5722 4.60665 15.062C4.21607 14.1202 4 13.0866 4 12C4 10.9134 4.21607 9.87984 4.60665 8.93796Z" fill="#000000"/>
<path d="M21.2408 8.17186C21.0292 7.6617 20.4442 7.41963 19.934 7.63118C19.4239 7.84274 19.1818 8.4278 19.3933 8.93796C19.7839 9.87984 20 10.9134 20 12C20 13.0866 19.7839 14.1202 19.3933 15.062C19.1818 15.5722 19.4239 16.1573 19.934 16.3688C20.4442 16.5804 21.0292 16.3383 21.2408 15.8281C21.7303 14.6477 22 13.3541 22 12C22 10.6459 21.7303 9.35232 21.2408 8.17186Z" fill="#000000"/>
<path d="M8.93796 19.3933C8.4278 19.1818 7.84274 19.4239 7.63118 19.934C7.41963 20.4442 7.6617 21.0292 8.17186 21.2408C9.35232 21.7303 10.6459 22 12 22C13.3541 22 14.6477 21.7303 15.8281 21.2408C16.3383 21.0292 16.5804 20.4442 16.3688 19.934C16.1573 19.4239 15.5722 19.1818 15.062 19.3933C14.1202 19.7839 13.0866 20 12 20C10.9134 20 9.87984 19.7839 8.93796 19.3933Z" fill="#000000"/>
<path fill-rule="evenodd" clip-rule="evenodd" d="M12 8C9.79086 8 8 9.79086 8 12C8 14.2091 9.79086 16 12 16C14.2091 16 16 14.2091 16 12C16 9.79086 14.2091 8 12 8ZM10 12C10 10.8954 10.8954 10 12 10C13.1046 10 14 10.8954 14 12C14 13.1046 13.1046 14 12 14C10.8954 14 10 13.1046 10 12Z" fill="#000000"/>
</svg>