<!DOCTYPE svg PUBLIC "-//W3C//DTD SVG 1.1//EN" "http://www.w3.org/Graphics/SVG/1.1/DTD/svg11.dtd">
<!-- Uploaded to: SVG Repo, www.svgrepo.com, Transformed by: SVG Repo Mixer Tools -->
<svg fill="#000000" width="800px" height="800px" viewBox="0 0 24 24" id="app-store" data-name="Flat Color" xmlns="http://www.w3.org/2000/svg" class="icon flat-color">
<g id="SVGRepo_bgCarrier" stroke-width="0"/>
<g id="SVGRepo_tracerCarrier" stroke-linecap="round" stroke-linejoin="round"/>
<g id="SVGRepo_iconCarrier">
<path id="primary" d="M22,17a1,1,0,0,1-1,1H19.48l1.39,2.51a1,1,0,0,1-.38,1.36A1,1,0,0,1,20,22a1,1,0,0,1-.87-.51L13.42,11.21a1,1,0,0,1,1.74-1L18.37,16H21A1,1,0,0,1,22,17Zm-9-1H7.92l7-12.51a1,1,0,0,0-1.74-1L12,4.54l-1.13-2a1,1,0,1,0-1.74,1L10.86,6.6,5.63,16H3a1,1,0,0,0,0,2H4.52L3.13,20.51a1,1,0,0,0,.38,1.36A1,1,0,0,0,4,22a1,1,0,0,0,.87-.51L6.81,18H13a1,1,0,0,0,0-2Z" style="fill: #78C5EF;"/>
</g>
</svg>