<!DOCTYPE svg PUBLIC "-//W3C//DTD SVG 1.1//EN" "http://www.w3.org/Graphics/SVG/1.1/DTD/svg11.dtd">
<!-- Uploaded to: SVG Repo, www.svgrepo.com, Transformed by: SVG Repo Mixer Tools -->
<svg width="800px" height="800px" viewBox="0 0 20 20" version="1.1" xmlns="http://www.w3.org/2000/svg" fill="#000000">
<g id="SVGRepo_bgCarrier" stroke-width="0"/>
<g id="SVGRepo_tracerCarrier" stroke-linecap="round" stroke-linejoin="round"/>
<g id="SVGRepo_iconCarrier"> <g id="layer1"> <path d="M 14.5 2 A 0.5 0.5 0 0 0 14.289062 2.046875 A 0.5 0.5 0 0 0 14.273438 2.0546875 C 14.250037 2.0655231 13.461984 2.4282951 12.345703 2.734375 C 11.212746 3.0450273 9.7729915 3.2688684 8.6074219 3.0117188 C 7.2574395 2.7138833 5.9467917 2.6082827 4.8769531 2.9335938 C 4.3420338 3.096249 3.8596954 3.3800486 3.5195312 3.8183594 C 3.1793673 4.2566701 3.00039 4.8324343 3 5.5 C 2.9995816 6.2165812 3.3430121 6.7996717 3.828125 7.125 C 4.3132379 7.4503283 4.8922097 7.5716844 5.4746094 7.6425781 C 6.057009 7.7134721 6.6508188 7.7248071 7.1621094 7.7578125 C 7.6734 7.7908185 8.1060279 7.8636875 8.28125 7.9492188 C 8.7542664 8.1801126 8.9042258 8.512528 8.9765625 8.8359375 C 8.9910335 8.9006354 8.9875111 8.9422896 8.9941406 9 L 0 9 L 0 18 L 20 18 L 20 9 L 10.007812 9 C 9.9988689 8.8816201 9.9834196 8.7526315 9.953125 8.6171875 C 9.8356605 8.0920143 9.4865271 7.4255571 8.71875 7.0507812 C 8.2735753 6.8334778 7.7693087 6.7948019 7.2265625 6.7597656 C 6.6838163 6.7247293 6.1064211 6.7127965 5.59375 6.6503906 C 5.0810789 6.5879847 4.6431513 6.4682015 4.3847656 6.2949219 C 4.1263799 6.1216423 3.9997388 5.9473853 4 5.5 C 4.00029 5.0035992 4.1205416 4.6764676 4.3105469 4.4316406 C 4.5005522 4.1868136 4.7790245 4.0088931 5.1679688 3.890625 C 5.9458572 3.6540887 7.1348288 3.7107947 8.3925781 3.9882812 C 9.8347405 4.3064534 11.394265 4.0304438 12.609375 3.6972656 C 13.77837 3.3767319 14.602058 3.0019882 14.666016 2.9726562 A 0.5 0.5 0 0 0 14.705078 2.9550781 A 0.5 0.5 0 0 0 14.710938 2.953125 A 0.5 0.5 0 0 0 15 2.5 A 0.5 0.5 0 0 0 14.5 2 z M 1 10 L 19 10 L 19 17 L 1 17 L 1 10 z M 2 11 L 2 12 L 4 12 L 4 11 L 2 11 z M 5 11 L 5 12 L 6 12 L 6 11 L 5 11 z M 7 11 L 7 12 L 8 12 L 8 11 L 7 11 z M 9 11 L 9 12 L 10 12 L 10 11 L 9 11 z M 11 11 L 11 12 L 12 12 L 12 11 L 11 11 z M 13 11 L 13 12 L 14 12 L 14 11 L 13 11 z M 15 11 L 15 12 L 16 12 L 16 11 L 15 11 z M 17 11 L 17 13 L 16 13 L 16 14 L 18 14 L 18 13 L 18 11 L 17 11 z M 2 13 L 2 14 L 5 14 L 5 13 L 2 13 z M 6 13 L 6 14 L 7 14 L 7 13 L 6 13 z M 8 13 L 8 14 L 9 14 L 9 13 L 8 13 z M 10 13 L 10 14 L 11 14 L 11 13 L 10 13 z M 12 13 L 12 14 L 13 14 L 13 13 L 12 13 z M 14 13 L 14 14 L 15 14 L 15 13 L 14 13 z M 2 15 L 2 16 L 3 16 L 3 15 L 2 15 z M 4 15 L 4 16 L 5 16 L 5 15 L 4 15 z M 6 15 L 6 16 L 14 16 L 14 15 L 6 15 z M 15 15 L 15 16 L 16 16 L 16 15 L 15 15 z M 17 15 L 17 16 L 18 16 L 18 15 L 17 15 z " style="fill:#75f089; fill-opacity:1; stroke:none; stroke-width:0px;"/> </g> </g>
</svg>